<svg width="25" height="25" viewBox="0 0 40 40" fill="none" xmlns="http://www.w3.org/2000/svg">
<path d="M7.69231 36.9231H13.099C10.6825 33.9972 9.23077 30.2449 9.23077 26.1539C9.23077 20.4303 12.0722 15.3704 16.4213 12.3077H0V29.2308C0 33.4791 3.44397 36.9231 7.69231 36.9231Z" fill="#828284"/>
<path d="M36.9231 9.23077H0V7.69231C0 3.44397 3.44397 0 7.69231 0H29.2308C33.4791 0 36.9231 3.44397 36.9231 7.69231V9.23077Z" fill="#828284"/>
<path d="M39.9999 26.1539C39.9999 33.8009 33.8008 40 26.1538 40C18.5068 40 12.3076 33.8009 12.3076 26.1539C12.3076 18.5068 18.5068 12.3077 26.1538 12.3077C33.8008 12.3077 39.9999 18.5068 39.9999 26.1539ZM33.3956 20.4506C32.7947 19.8498 31.8205 19.8498 31.2196 20.4506L23.0768 28.5936L21.0878 26.6043C20.487 26.0037 19.5129 26.0037 18.9121 26.6043C18.3112 27.2052 18.3112 28.1794 18.9121 28.7803L21.989 31.8572C22.5898 32.4579 23.5639 32.4579 24.1647 31.8572L33.3956 22.6263C33.9962 22.0255 33.9962 21.0514 33.3956 20.4506Z" 
fill="#828284"/>
</svg>
