<svg width="70" height="110" viewBox="0 0 100 150" fill="none" xmlns="http://www.w3.org/2000/svg">
<path d="M49.974 9.3843C26.6202 9.3843 7.68831 32.4925 7.68831 60.9979C7.68831 68.321 8.93774 75.2874 11.1906 81.5983C8.97203 83.1233 6.85921 85.0367 4.89945 87.3706C1.75916 79.3893 0 70.4442 0 60.9979C0 27.3097 22.3741 0 49.974 0C77.5743 0 99.9481 27.3097 99.9481 60.9979C99.9481 64.7309 99.6736 68.3856 99.147 71.9335C97.0281 69.7891 94.6339 67.9954 92.0091 66.6467C92.1752 64.7915 92.2598 62.9068 92.2598 60.9979C92.2598 32.4925 73.3281 9.3843 49.974 9.3843Z" fill="white"/>
<path d="M84.4775 64.1338C84.5398 63.0984 84.5713 62.0527 84.5713 60.998C84.5713 37.6754 69.0816 18.7687 49.9739 18.7687C30.8663 18.7687 15.3765 37.6754 15.3765 60.998C15.3765 67.0806 16.4301 72.8628 18.3266 78.0878C20.6943 77.3333 23.1184 76.9288 25.5527 76.8415C25.8319 76.8312 26.1105 76.8256 26.3885 76.8237C24.2701 72.1296 23.0648 66.7356 23.0648 60.998C23.0648 42.8582 35.1124 28.153 49.9739 28.153C64.8354 28.153 76.883 42.8582 76.883 60.998C76.883 61.5029 76.8738 62.0052 76.8553 62.5045L84.4775 64.1338Z" fill="white"/>
<path d="M49.9743 37.537C43.6051 37.537 38.4419 43.8392 38.4419 51.6135V91.5098C33.9501 89.6527 28.8844 88.5454 24.0933 89.1779C20.5735 89.6424 17.0562 91.0697 14.0906 94.0164C11.0976 96.9903 8.93641 101.246 7.80277 106.781C7.53375 108.095 7.74272 109.486 8.37601 110.598C9.00929 111.71 10.0051 112.433 11.1077 112.582C31.0351 115.285 41.2046 128.542 46.1105 138.182C49.798 145.427 56.9539 151.389 64.8375 149.716L76.4999 147.24C83.2549 145.806 88.872 140.09 91.2423 132.236L98.8053 107.177C102.949 93.4449 95.8945 78.4826 84.0845 75.9582L61.507 71.1323V51.6135C61.507 43.8392 56.3435 37.537 49.9743 37.537ZM46.1302 51.6135C46.1302 49.0221 47.8513 46.9213 49.9743 46.9213C52.0974 46.9213 53.8186 49.0221 53.8186 51.6135V75.0742C53.8186 77.3536 55.1602 79.3028 56.9993 79.696L82.7582 85.2017C89.8445 86.7164 94.077 95.6934 91.5906 103.933L84.0276 128.993C82.606 133.704 79.2354 137.134 75.1822 137.995L63.5205 140.471C59.6633 141.289 55.2417 138.34 52.6412 133.23C47.2525 122.641 36.5456 108.638 16.9009 104.151C17.5133 102.955 18.2095 102.024 18.9447 101.294C20.5041 99.7446 22.5129 98.8249 24.9196 98.5077C29.8569 97.8564 35.8241 99.8375 40.5668 102.732C41.7585 103.459 43.1737 103.381 44.307 102.526C45.4404 101.671 46.1302 100.161 46.1302 98.5349V51.6135Z" fill="white"/>
</svg>
