<svg width="40" height="41" viewBox="0 0 40 41" fill="none" xmlns="http://www.w3.org/2000/svg">
<path d="M27.2737 7.29206H38.1828C39.1868 7.29206 40.001 8.03826 40.001 8.95873C40.001 9.8792 39.1868 10.6254 38.1828 10.6254H36.1737L33.4359 33.2124C32.9243 37.4327 29.033 40.6254 24.4007 40.6254H15.6013C10.969 40.6254 7.07752 37.4327 6.56596 33.2124L3.82814 10.6254H1.81916C0.815013 10.6254 0.000976562 9.8792 0.000976562 8.95873C0.000976562 8.03826 0.815013 7.29206 1.81916 7.29206H12.7282C12.7282 3.61016 15.9844 0.625397 20.001 0.625397C24.0176 0.625397 27.2737 3.61016 27.2737 7.29206ZM20.001 3.95873C17.9927 3.95873 16.3646 5.45113 16.3646 7.29206H23.6373C23.6373 5.45113 22.0093 3.95873 20.001 3.95873ZM14.5464 17.2921V30.6254C14.5464 31.5457 15.3605 32.2921 16.3646 32.2921C17.3688 32.2921 18.1828 31.5457 18.1828 30.6254V17.2921C18.1828 16.3716 17.3688 15.6254 16.3646 15.6254C15.3605 15.6254 14.5464 16.3716 14.5464 17.2921ZM23.6373 15.6254C22.6332 15.6254 21.8192 16.3716 21.8192 17.2921V30.6254C21.8192 31.5457 22.6332 32.2921 23.6373 32.2921C24.6415 32.2921 25.4555 31.5457 25.4555 30.6254V17.2921C25.4555 16.3716 24.6415 15.6254 23.6373 15.6254Z" 
fill="#8b0000"/>
</svg>
