<svg width="30" height="30" viewBox="0 0 40 40" fill="none" xmlns="http://www.w3.org/2000/svg">
<path d="M20 40C31.0457 40 40 31.0457 40 20C40 8.9543 31.0457 0 20 0C8.9543 0 0 8.9543 0 20C0 31.0457 8.9543 40 20 40ZM15 12.5C15 9.73857 17.2386 7.5 20 7.5C22.7615 7.5 25 9.73857 25 12.5C25 15.2614 22.7615 17.5 20 17.5C17.2386 17.5 15 15.2614 15 12.5ZM13.75 20H26.25C28.321 20 30 21.679 30 23.75C30 26.5403 28.8525 28.7758 26.9697 30.287C25.1165 31.7745 22.6327 32.5 20 32.5C17.3673 32.5 14.8836 31.7745 13.0304 30.287C11.1474 28.7758 10 26.5403 10 23.75C10 21.679 11.6789 20 13.75 20Z" fill="#212121"/>
</svg>
